<svg width="689" height="444" viewBox="0 0 689 444" fill="none" xmlns="http://www.w3.org/2000/svg">
    <g clip-path="url(#clip0_109_10)">
        <rect width="689" height="444" fill="white" />
        <rect width="689" height="444" fill="#00B3FF" />
        <path d="M-94.1587 -107L276.505 110.516L213.663 217.602L-157 0.0863354L-94.1587 -107Z"
            fill="url(#paint0_linear_109_10)" />
        <path d="M138.452 76L509.115 293.516L476.663 348.816L106 131.3L138.452 76Z"
            fill="url(#paint1_linear_109_10)" />
        <path d="M292.841 -52L663.505 165.516L600.664 272.602L230 55.0863L292.841 -52Z"
            fill="url(#paint2_linear_109_10)" />
        <path d="M-127.159 132L243.505 349.516L180.664 456.602L-190 239.086L-127.159 132Z"
            fill="url(#paint3_linear_109_10)" />
        <path d="M-0.15863 25L370.505 242.516L307.664 349.602L-63 132.086L-0.15863 25Z"
            fill="url(#paint4_linear_109_10)" />
        <path d="M153.841 -31L524.505 186.516L461.664 293.602L91 76.0863L153.841 -31Z"
            fill="url(#paint5_linear_109_10)" />
    </g>
    <defs>
        <linearGradient id="paint0_linear_109_10" x1="-121" y1="33.5" x2="188.573" y2="273.622"
            gradientUnits="userSpaceOnUse">
            <stop stop-color="#00B2FF" stop-opacity="0.38" />
            <stop offset="1" stop-color="white" stop-opacity="0.44" />
        </linearGradient>
        <linearGradient id="paint1_linear_109_10" x1="144.594" y1="160.293" x2="417.829"
            y2="428.904" gradientUnits="userSpaceOnUse">
            <stop stop-color="#00B2FF" stop-opacity="0.38" />
            <stop offset="1" stop-color="white" stop-opacity="0.44" />
        </linearGradient>
        <linearGradient id="paint2_linear_109_10" x1="266" y1="88.5" x2="575.573" y2="328.622"
            gradientUnits="userSpaceOnUse">
            <stop stop-color="#00B2FF" stop-opacity="0.38" />
            <stop offset="1" stop-color="white" stop-opacity="0.44" />
        </linearGradient>
        <linearGradient id="paint3_linear_109_10" x1="-154" y1="272.5" x2="155.573" y2="512.622"
            gradientUnits="userSpaceOnUse">
            <stop stop-color="#00B2FF" stop-opacity="0.38" />
            <stop offset="1" stop-color="white" stop-opacity="0.44" />
        </linearGradient>
        <linearGradient id="paint4_linear_109_10" x1="-26.9999" y1="165.5" x2="282.573" y2="405.622"
            gradientUnits="userSpaceOnUse">
            <stop stop-color="#00B2FF" stop-opacity="0.38" />
            <stop offset="1" stop-color="white" stop-opacity="0.44" />
        </linearGradient>
        <linearGradient id="paint5_linear_109_10" x1="127" y1="109.5" x2="436.573" y2="349.622"
            gradientUnits="userSpaceOnUse">
            <stop stop-color="#00B2FF" stop-opacity="0.38" />
            <stop offset="1" stop-color="white" stop-opacity="0.44" />
        </linearGradient>
        <clipPath id="clip0_109_10">
            <rect width="689" height="444" fill="white" />
        </clipPath>
    </defs>
</svg>