<?xml version="1.0" encoding="UTF-8" standalone="no"?>
<!-- Created with Inkscape (http://www.inkscape.org/) -->

<svg
   width="210mm"
   height="297mm"
   viewBox="0 0 210 297"
   version="1.1"
   id="svg21"
   xml:space="preserve"
   inkscape:version="1.2 (1:1.2.1+202207142221+cd75a1ee6d)"
   sodipodi:docname="vercel.svg"
   xmlns:inkscape="http://www.inkscape.org/namespaces/inkscape"
   xmlns:sodipodi="http://sodipodi.sourceforge.net/DTD/sodipodi-0.dtd"
   xmlns="http://www.w3.org/2000/svg"
   xmlns:svg="http://www.w3.org/2000/svg"><sodipodi:namedview
     id="namedview23"
     pagecolor="#ffffff"
     bordercolor="#000000"
     borderopacity="0.25"
     inkscape:showpageshadow="2"
     inkscape:pageopacity="0.0"
     inkscape:pagecheckerboard="0"
     inkscape:deskcolor="#d1d1d1"
     inkscape:document-units="mm"
     showgrid="false"
     inkscape:zoom="1.6290957"
     inkscape:rotation="1"
     inkscape:cx="390.75642"
     inkscape:cy="228.00793"
     inkscape:window-width="1920"
     inkscape:window-height="1007"
     inkscape:window-x="0"
     inkscape:window-y="39"
     inkscape:window-maximized="1"
     inkscape:current-layer="layer1" /><defs
     id="defs18" /><g
     inkscape:label="Layer 1"
     inkscape:groupmode="layer"
     id="layer1"><g
       style="fill:none"
       id="g34"
       transform="matrix(0.26458333,0,0,0.26458333,40.392447,77.971052)"><path
         d="M 36.95,0 71.136342,60.604171 H -2.7636585 Z"
         fill="#000000"
         id="path25"
         sodipodi:nodetypes="cccc" /></g><path
       style="fill:none;fill-rule:evenodd;stroke:#000000;stroke-width:0.264583px;stroke-linecap:butt;stroke-linejoin:miter;stroke-opacity:1"
       d="M 49.936312,93.651286 53.01629,83.98644"
       id="path456"
       inkscape:connector-type="polyline"
       inkscape:connector-curvature="0" /><path
       style="fill:#000000;stroke-width:0.264583"
       d="m 48.710172,89.271056 c 2.398943,3.772572 4.900702,0.202417 4.900702,0.202417 l 0.925571,3.704523 -1.994064,0.611164 -1.051568,-0.34531 z"
       id="path777" /><path
       style="fill:#000000;stroke-width:0.264583"
       d="m 49.625985,90.117336 c 4.119163,1.597131 0,0 0,0 z"
       id="path779" /><path
       sodipodi:type="spiral"
       style="fill:none;fill-rule:evenodd;stroke:#000000;stroke-width:0.264583"
       id="path834"
       sodipodi:cx="47.668976"
       sodipodi:cy="88.689667"
       sodipodi:expansion="1"
       sodipodi:revolution="2.8302462"
       sodipodi:radius="3.2379153"
       sodipodi:argument="-18.656925"
       sodipodi:t0="0"
       d="m 47.668976,88.689667 c 0.168898,0.03294 0.03892,0.243924 -0.05475,0.28072 -0.253855,0.09971 -0.479878,-0.15923 -0.506686,-0.390229 -0.04795,-0.413202 0.339374,-0.726286 0.725703,-0.732651 0.566952,-0.0093 0.977421,0.521031 0.958617,1.061177 -0.02506,0.719928 -0.703104,1.230415 -1.396651,1.184583 -0.872759,-0.05768 -1.48434,-0.885344 -1.410549,-1.732126 0.08937,-1.025566 1.067672,-1.738796 2.067599,-1.636514 1.178381,0.120535 1.993587,1.250054 1.862481,2.403074 -0.151368,1.331206 -1.432473,2.248599 -2.738548,2.088446 -1.484045,-0.181977 -2.503769,-1.614918 -2.314412,-3.074022 0.212429,-1.636895 1.797381,-2.759051 3.409496,-2.540378 0.533336,0.07234 1.044451,0.283252 1.475771,0.604831" /><path
       style="fill:#000000;fill-rule:evenodd;stroke-width:0.613837"
       d="m 183.00873,355.00286 c -11.31218,-0.0283 -23.24012,-0.0435 -26.50655,-0.0338 l -5.93896,0.0176 19.51915,-29.80213 c 11.64311,-17.77686 19.68974,-29.49838 19.94193,-29.04936 0.23253,0.41402 7.7256,13.69764 16.65128,29.51915 8.92567,15.82151 16.23059,28.88585 16.23313,29.03185 0.005,0.30474 -10.68997,0.38961 -39.89998,0.31663 z"
       id="path970"
       transform="scale(0.26458333)" /><path
       style="fill:#000000;fill-rule:evenodd;stroke-width:0.613837"
       d="m 183.00873,355.00286 c -11.31218,-0.0283 -23.24132,-0.0434 -26.50921,-0.0337 l -5.94162,0.0177 19.52008,-29.80513 c 11.80483,-18.02475 19.69059,-29.50649 19.95149,-29.04953 6.20836,10.87386 32.87597,58.36674 32.87927,58.55533 0.005,0.30353 -10.71815,0.38829 -39.90001,0.31538 z"
       id="path972"
       transform="scale(0.26458333)" /><path
       style="fill:#ffffff;fill-rule:evenodd;stroke-width:0.613837"
       d="m 178.15177,355.04999 c -13.98386,-0.023 -25.88164,-0.11623 -26.4395,-0.20719 -0.74875,-0.1221 3.86264,-7.59453 17.61355,-28.54152 10.24532,-15.60686 19.00761,-28.95689 19.47177,-29.66672 0.78637,-1.20258 1.9673,0.70287 17.31636,27.94039 9.05984,16.07704 16.56902,29.48838 16.68706,29.80298 0.23893,0.63675 -6.29592,0.73511 -44.64924,0.67206 z"
       id="path974"
       transform="scale(0.26458333)" /><path
       style="fill:#ffffff;fill-rule:evenodd;stroke-width:0.613837"
       d="m 167.24552,354.73139 c -7.82391,-0.052 -14.42166,-0.28456 -14.66167,-0.51682 -0.51467,-0.49807 3.98541,-7.69481 22.53049,-36.03181 7.54433,-11.52778 13.95953,-20.96383 14.25599,-20.96901 0.74987,-0.0131 17.30553,28.65039 32.2097,55.76595 l 0.75205,1.36822 -20.43064,0.23899 c -11.23684,0.13145 -26.83201,0.19647 -34.65592,0.14448 z"
       id="path1045"
       transform="scale(0.26458333)" /><path
       style="fill:#ffffff;fill-rule:evenodd;stroke-width:0.613837"
       d="m 167.24552,354.73139 c -7.82391,-0.052 -14.42166,-0.28456 -14.66167,-0.51682 -0.51467,-0.49807 3.98541,-7.69481 22.53049,-36.03181 7.54433,-11.52778 13.95953,-20.96383 14.25599,-20.96901 0.29647,-0.005 2.51041,3.34048 4.91988,7.43478 3.4069,5.7892 23.3054,41.02353 27.29486,48.33108 l 0.74701,1.36831 -20.43064,0.23899 c -11.23684,0.13145 -26.83201,0.19647 -34.65592,0.14448 z"
       id="path1047"
       transform="scale(0.26458333)" /></g></svg>
